<?xml version="1.0" encoding="UTF-8" standalone="no"?>
<!-- Created with Inkscape (http://www.inkscape.org/) -->

<svg
   width="200"
   height="200"
   viewBox="0 0 52.916621 52.916633"
   version="1.1"
   id="svg1"
   xml:space="preserve"
   xmlns="http://www.w3.org/2000/svg"
   xmlns:svg="http://www.w3.org/2000/svg"><defs
     id="defs1" /><g
     id="layer1"><path
       style="fill:#000000;stroke-width:1.67494"
       d="m 17.560076,48.186464 c 0.532868,-4.0939 0.194154,-4.436778 -4.943179,-5.004194 -5.2475972,-0.579595 -7.8176561,-6.328061 -3.1095945,-6.955247 8.1932475,-1.091462 16.7455165,2.065921 18.4270005,6.802992 2.352739,6.628139 1.785596,7.539992 -4.689719,7.539992 -5.994741,0 -5.994741,0 -5.684508,-2.383543 z M 33.087361,47.422141 C 32.359434,36.855784 24.09254,31.92947 10.230035,33.801308 7.4030462,34.183027 7.4030462,34.183027 7.385626,32.932925 7.3736591,32.017463 6.9897616,31.450374 5.9545236,30.814443 3.4765756,29.292324 3.4664892,28.911508 5.811263,25.400088 7.6954485,22.578387 7.9140834,22.006089 7.669258,20.536382 5.7088779,8.7682963 19.993542,-1.1391903 33.25071,2.7937236 48.421843,7.2944408 51.642541,23.191594 39.902551,35.626916 c -3.492243,3.699073 -3.572387,4.270871 -1.896443,13.531988 0.255374,1.411103 0.255374,1.411103 -2.223241,1.411103 -2.478615,0 -2.478615,0 -2.695489,-3.147866 z M 28.209745,40.58367 c 0,-0.653949 0.236171,-0.888385 0.791558,-0.785706 0.435357,0.0804 0.791558,0.434052 0.791558,0.785706 0,0.351673 -0.356201,0.705248 -0.791558,0.785725 -0.555382,0.10274 -0.791558,-0.131773 -0.791558,-0.785725 z m -2.713917,-2.605128 c 0,-0.653949 0.23617,-0.888388 0.791558,-0.785709 0.435357,0.0804 0.791558,0.434052 0.791558,0.785709 0,0.35167 -0.356201,0.705245 -0.791558,0.785722 -0.555382,0.10274 -0.791558,-0.131773 -0.791558,-0.785722 z m -2.940074,-1.30255 c -0.378616,-0.588044 0.13232,-1.302564 0.931332,-1.302564 0.358475,0 0.651784,0.39076 0.651784,0.868366 0,0.898904 -1.091226,1.198178 -1.583116,0.434198 z"
       id="path1" /></g></svg>
